<mxfile host="app.diagrams.net" modified="2023-04-21T05:29:42.788Z" agent="Mozilla/5.0 (Windows NT 10.0; Win64; x64) AppleWebKit/537.36 (KHTML, like Gecko) Chrome/112.0.0.0 Safari/537.36" etag="kS18uM9x-VVzMsjchP5v" version="21.2.1" type="device">
  <diagram name="페이지-1" id="m1lQD9IwEolzN511gsZ7">
    <mxGraphModel dx="2289" dy="1275" grid="1" gridSize="10" guides="0" tooltips="1" connect="1" arrows="0" fold="1" page="1" pageScale="1" pageWidth="4681" pageHeight="3300" math="0" shadow="0">
      <root>
        <mxCell id="0" />
        <mxCell id="1" parent="0" />
        <mxCell id="_6NbFjQCXLk-wCDLx3iL-15" style="rounded=0;orthogonalLoop=1;jettySize=auto;html=1;entryX=0.5;entryY=0;entryDx=0;entryDy=0;exitX=0.5;exitY=1;exitDx=0;exitDy=0;" edge="1" parent="1" source="_6NbFjQCXLk-wCDLx3iL-1" target="_6NbFjQCXLk-wCDLx3iL-3">
          <mxGeometry relative="1" as="geometry">
            <mxPoint x="2890" y="720" as="sourcePoint" />
          </mxGeometry>
        </mxCell>
        <mxCell id="_6NbFjQCXLk-wCDLx3iL-2" value="이름" style="ellipse;whiteSpace=wrap;html=1;align=center;" vertex="1" parent="1">
          <mxGeometry x="2410" y="800" width="100" height="40" as="geometry" />
        </mxCell>
        <mxCell id="_6NbFjQCXLk-wCDLx3iL-3" value="학번" style="ellipse;whiteSpace=wrap;html=1;align=center;fontStyle=4;" vertex="1" parent="1">
          <mxGeometry x="2520" y="800" width="100" height="40" as="geometry" />
        </mxCell>
        <mxCell id="_6NbFjQCXLk-wCDLx3iL-7" value="학년" style="ellipse;whiteSpace=wrap;html=1;align=center;" vertex="1" parent="1">
          <mxGeometry x="2630" y="800" width="100" height="40" as="geometry" />
        </mxCell>
        <mxCell id="_6NbFjQCXLk-wCDLx3iL-11" value="학과" style="ellipse;whiteSpace=wrap;html=1;align=center;" vertex="1" parent="1">
          <mxGeometry x="2300" y="800" width="100" height="40" as="geometry" />
        </mxCell>
        <mxCell id="_6NbFjQCXLk-wCDLx3iL-12" value="주소" style="ellipse;whiteSpace=wrap;html=1;align=center;" vertex="1" parent="1">
          <mxGeometry x="2850" y="800" width="100" height="40" as="geometry" />
        </mxCell>
        <mxCell id="_6NbFjQCXLk-wCDLx3iL-13" value="전화번호" style="ellipse;whiteSpace=wrap;html=1;align=center;" vertex="1" parent="1">
          <mxGeometry x="2740" y="800" width="100" height="40" as="geometry" />
        </mxCell>
        <mxCell id="_6NbFjQCXLk-wCDLx3iL-16" style="rounded=0;orthogonalLoop=1;jettySize=auto;html=1;entryX=0.5;entryY=0;entryDx=0;entryDy=0;exitX=0.5;exitY=1;exitDx=0;exitDy=0;" edge="1" parent="1" source="_6NbFjQCXLk-wCDLx3iL-1">
          <mxGeometry relative="1" as="geometry">
            <mxPoint x="2630" y="570" as="sourcePoint" />
            <mxPoint x="2680" y="800" as="targetPoint" />
          </mxGeometry>
        </mxCell>
        <mxCell id="_6NbFjQCXLk-wCDLx3iL-52" style="rounded=0;orthogonalLoop=1;jettySize=auto;html=1;exitX=0.5;exitY=0;exitDx=0;exitDy=0;entryX=0;entryY=1;entryDx=0;entryDy=0;" edge="1" parent="1" source="_6NbFjQCXLk-wCDLx3iL-1" target="_6NbFjQCXLk-wCDLx3iL-49">
          <mxGeometry relative="1" as="geometry" />
        </mxCell>
        <mxCell id="_6NbFjQCXLk-wCDLx3iL-1" value="학생" style="rounded=1;arcSize=10;whiteSpace=wrap;html=1;align=center;" vertex="1" parent="1">
          <mxGeometry x="2610" y="330" width="100" height="40" as="geometry" />
        </mxCell>
        <mxCell id="_6NbFjQCXLk-wCDLx3iL-18" style="rounded=0;orthogonalLoop=1;jettySize=auto;html=1;entryX=0.5;entryY=0;entryDx=0;entryDy=0;exitX=0.5;exitY=1;exitDx=0;exitDy=0;" edge="1" parent="1" source="_6NbFjQCXLk-wCDLx3iL-1">
          <mxGeometry relative="1" as="geometry">
            <mxPoint x="2750" y="650" as="sourcePoint" />
            <mxPoint x="2794" y="800" as="targetPoint" />
          </mxGeometry>
        </mxCell>
        <mxCell id="_6NbFjQCXLk-wCDLx3iL-19" style="rounded=0;orthogonalLoop=1;jettySize=auto;html=1;entryX=0.5;entryY=0;entryDx=0;entryDy=0;exitX=0.478;exitY=1.004;exitDx=0;exitDy=0;exitPerimeter=0;" edge="1" parent="1" source="_6NbFjQCXLk-wCDLx3iL-1">
          <mxGeometry relative="1" as="geometry">
            <mxPoint x="2520" y="650" as="sourcePoint" />
            <mxPoint x="2460" y="800" as="targetPoint" />
          </mxGeometry>
        </mxCell>
        <mxCell id="_6NbFjQCXLk-wCDLx3iL-20" style="rounded=0;orthogonalLoop=1;jettySize=auto;html=1;entryX=0.5;entryY=0;entryDx=0;entryDy=0;exitX=0.5;exitY=1;exitDx=0;exitDy=0;" edge="1" parent="1" source="_6NbFjQCXLk-wCDLx3iL-1">
          <mxGeometry relative="1" as="geometry">
            <mxPoint x="2410" y="650" as="sourcePoint" />
            <mxPoint x="2350" y="800" as="targetPoint" />
          </mxGeometry>
        </mxCell>
        <mxCell id="_6NbFjQCXLk-wCDLx3iL-21" style="rounded=0;orthogonalLoop=1;jettySize=auto;html=1;entryX=0.5;entryY=0;entryDx=0;entryDy=0;exitX=0.5;exitY=1;exitDx=0;exitDy=0;" edge="1" parent="1" source="_6NbFjQCXLk-wCDLx3iL-1">
          <mxGeometry relative="1" as="geometry">
            <mxPoint x="2630" y="650" as="sourcePoint" />
            <mxPoint x="2904" y="800" as="targetPoint" />
          </mxGeometry>
        </mxCell>
        <mxCell id="_6NbFjQCXLk-wCDLx3iL-35" style="rounded=0;orthogonalLoop=1;jettySize=auto;html=1;entryX=0.5;entryY=0;entryDx=0;entryDy=0;exitX=0.5;exitY=1;exitDx=0;exitDy=0;" edge="1" source="_6NbFjQCXLk-wCDLx3iL-43" target="_6NbFjQCXLk-wCDLx3iL-37" parent="1">
          <mxGeometry relative="1" as="geometry">
            <mxPoint x="3730" y="720" as="sourcePoint" />
          </mxGeometry>
        </mxCell>
        <mxCell id="_6NbFjQCXLk-wCDLx3iL-36" value="과목명" style="ellipse;whiteSpace=wrap;html=1;align=center;" vertex="1" parent="1">
          <mxGeometry x="3260" y="800" width="100" height="40" as="geometry" />
        </mxCell>
        <mxCell id="_6NbFjQCXLk-wCDLx3iL-37" value="과목코드" style="ellipse;whiteSpace=wrap;html=1;align=center;fontStyle=4;" vertex="1" parent="1">
          <mxGeometry x="3140" y="800" width="100" height="40" as="geometry" />
        </mxCell>
        <mxCell id="_6NbFjQCXLk-wCDLx3iL-38" value="강의실" style="ellipse;whiteSpace=wrap;html=1;align=center;" vertex="1" parent="1">
          <mxGeometry x="3470" y="800" width="100" height="40" as="geometry" />
        </mxCell>
        <mxCell id="_6NbFjQCXLk-wCDLx3iL-39" value="담당교수" style="ellipse;whiteSpace=wrap;html=1;align=center;" vertex="1" parent="1">
          <mxGeometry x="3370" y="800" width="100" height="40" as="geometry" />
        </mxCell>
        <mxCell id="_6NbFjQCXLk-wCDLx3iL-40" value="조교" style="ellipse;whiteSpace=wrap;html=1;align=center;" vertex="1" parent="1">
          <mxGeometry x="3690" y="800" width="100" height="40" as="geometry" />
        </mxCell>
        <mxCell id="_6NbFjQCXLk-wCDLx3iL-41" value="연락처" style="ellipse;whiteSpace=wrap;html=1;align=center;" vertex="1" parent="1">
          <mxGeometry x="3580" y="800" width="100" height="40" as="geometry" />
        </mxCell>
        <mxCell id="_6NbFjQCXLk-wCDLx3iL-42" style="rounded=0;orthogonalLoop=1;jettySize=auto;html=1;entryX=0.5;entryY=0;entryDx=0;entryDy=0;exitX=0.5;exitY=1;exitDx=0;exitDy=0;" edge="1" source="_6NbFjQCXLk-wCDLx3iL-43" parent="1" target="_6NbFjQCXLk-wCDLx3iL-38">
          <mxGeometry relative="1" as="geometry">
            <mxPoint x="3470" y="570" as="sourcePoint" />
            <mxPoint x="3520" y="800" as="targetPoint" />
          </mxGeometry>
        </mxCell>
        <mxCell id="_6NbFjQCXLk-wCDLx3iL-51" style="rounded=0;orthogonalLoop=1;jettySize=auto;html=1;exitX=0.5;exitY=0;exitDx=0;exitDy=0;entryX=1;entryY=1;entryDx=0;entryDy=0;" edge="1" parent="1" source="_6NbFjQCXLk-wCDLx3iL-43" target="_6NbFjQCXLk-wCDLx3iL-49">
          <mxGeometry relative="1" as="geometry" />
        </mxCell>
        <mxCell id="_6NbFjQCXLk-wCDLx3iL-43" value="과목" style="rounded=1;arcSize=10;whiteSpace=wrap;html=1;align=center;" vertex="1" parent="1">
          <mxGeometry x="3450" y="340" width="100" height="40" as="geometry" />
        </mxCell>
        <mxCell id="_6NbFjQCXLk-wCDLx3iL-44" style="rounded=0;orthogonalLoop=1;jettySize=auto;html=1;exitX=0.5;exitY=1;exitDx=0;exitDy=0;entryX=0.5;entryY=0;entryDx=0;entryDy=0;" edge="1" source="_6NbFjQCXLk-wCDLx3iL-43" parent="1" target="_6NbFjQCXLk-wCDLx3iL-41">
          <mxGeometry relative="1" as="geometry">
            <mxPoint x="3590" y="650" as="sourcePoint" />
            <mxPoint x="3630" y="800" as="targetPoint" />
          </mxGeometry>
        </mxCell>
        <mxCell id="_6NbFjQCXLk-wCDLx3iL-45" style="rounded=0;orthogonalLoop=1;jettySize=auto;html=1;entryX=0.5;entryY=0;entryDx=0;entryDy=0;exitX=0.478;exitY=1.004;exitDx=0;exitDy=0;exitPerimeter=0;" edge="1" source="_6NbFjQCXLk-wCDLx3iL-43" parent="1" target="_6NbFjQCXLk-wCDLx3iL-36">
          <mxGeometry relative="1" as="geometry">
            <mxPoint x="3360" y="650" as="sourcePoint" />
            <mxPoint x="3300" y="800" as="targetPoint" />
          </mxGeometry>
        </mxCell>
        <mxCell id="_6NbFjQCXLk-wCDLx3iL-46" style="rounded=0;orthogonalLoop=1;jettySize=auto;html=1;entryX=0.5;entryY=0;entryDx=0;entryDy=0;exitX=0.5;exitY=1;exitDx=0;exitDy=0;" edge="1" source="_6NbFjQCXLk-wCDLx3iL-43" parent="1" target="_6NbFjQCXLk-wCDLx3iL-39">
          <mxGeometry relative="1" as="geometry">
            <mxPoint x="3250" y="650" as="sourcePoint" />
            <mxPoint x="3190" y="800" as="targetPoint" />
          </mxGeometry>
        </mxCell>
        <mxCell id="_6NbFjQCXLk-wCDLx3iL-47" style="rounded=0;orthogonalLoop=1;jettySize=auto;html=1;exitX=0.5;exitY=1;exitDx=0;exitDy=0;entryX=0.5;entryY=0;entryDx=0;entryDy=0;" edge="1" source="_6NbFjQCXLk-wCDLx3iL-43" parent="1" target="_6NbFjQCXLk-wCDLx3iL-40">
          <mxGeometry relative="1" as="geometry">
            <mxPoint x="3470" y="650" as="sourcePoint" />
            <mxPoint x="3710" y="770" as="targetPoint" />
          </mxGeometry>
        </mxCell>
        <mxCell id="_6NbFjQCXLk-wCDLx3iL-49" value="수강신청" style="rhombus;whiteSpace=wrap;html=1;" vertex="1" parent="1">
          <mxGeometry x="2980" y="140" width="180" height="90" as="geometry" />
        </mxCell>
      </root>
    </mxGraphModel>
  </diagram>
</mxfile>
